<svg width="53" height="51" viewBox="0 0 53 51" fill="none" xmlns="http://www.w3.org/2000/svg">
<path d="M25.2119 1.5C12.1163 1.5 1.50003 12.1163 1.50003 25.2119C1.50011 38.3075 12.1163 48.9238 25.2119 48.9238H47.5059C49.4388 48.9238 51.0057 47.3567 51.0059 45.4238V26.2529C51.0059 12.5823 39.9236 1.5 26.253 1.5H25.2119Z" stroke="#4265DF" stroke-width="3"/>
<path d="M25.7529 8.21191C16.3641 8.21191 8.75294 15.8231 8.75294 25.2119C8.75294 34.6008 16.3641 42.2119 25.7529 42.2119H41.2647C42.6389 42.2119 43.7529 41.0979 43.7529 39.7236V25.7119C43.7529 16.0469 35.9179 8.21191 26.2529 8.21191H25.7529Z" fill="white" stroke="#4265DF" stroke-width="2"/>
</svg>
